<?xml version="1.0" standalone="no"?>
<!DOCTYPE svg PUBLIC "-//W3C//DTD SVG 20010904//EN"
 "http://www.w3.org/TR/2001/REC-SVG-20010904/DTD/svg10.dtd">
<svg version="1.0" xmlns="http://www.w3.org/2000/svg"
 width="360.000000pt" height="360.000000pt" viewBox="0 0 360.000000 360.000000"
 preserveAspectRatio="xMidYMid meet">
<metadata>
Created by potrace 1.14, written by Peter Selinger 2001-2017
</metadata>
<g transform="translate(0.000000,360.000000) scale(0.100000,-0.100000)"
fill="#000000" stroke="none">
<path d="M2031 3370 c-4 -3 -7 -52 -6 -110 l0 -105 -111 -3 c-100 -2 -112 -5
-117 -21 -2 -11 0 -24 5 -29 6 -6 6 -12 -1 -16 -8 -5 -8 -13 -1 -27 8 -13 7
-25 -1 -40 -7 -15 -8 -24 0 -32 6 -6 7 -16 1 -28 -6 -11 -6 -20 -1 -23 11 -7
9 -25 -3 -44 -5 -8 -4 -18 2 -24 7 -7 8 -17 2 -29 -6 -11 -6 -20 -1 -24 6 -3
6 -17 1 -34 -4 -16 -4 -33 1 -38 5 -5 2 -18 -7 -31 -12 -17 -19 -20 -34 -12
-10 6 -21 7 -23 3 -3 -5 -64 -6 -137 -3 -73 3 -137 2 -143 -2 -6 -4 -17 -2
-24 4 -7 6 -13 7 -13 2 0 -5 -43 -7 -96 -4 -53 3 -101 2 -107 -2 -6 -4 -17 -2
-24 4 -7 6 -13 6 -13 1 0 -5 -13 -8 -28 -5 l-28 4 1 -114 1 -113 -225 0 -226
0 0 -110 0 -110 -43 -1 c-23 0 -44 -3 -47 -6 -4 -3 -22 -2 -41 2 -19 4 -36 4
-39 0 -2 -4 -16 -5 -30 -2 l-25 4 2 -563 3 -564 110 0 110 0 1 -220 c1 -121 2
-222 3 -225 0 -3 49 -5 109 -5 l107 0 2 -45 c1 -25 2 -47 3 -50 5 -16 4 -80
-1 -80 -3 0 -4 -11 -1 -25 4 -24 7 -25 91 -26 153 -2 136 12 138 -109 0 -58 1
-107 2 -110 2 -8 1335 -7 1341 1 3 4 5 55 5 114 l-1 106 108 -3 c59 -2 109 -1
109 2 1 3 3 15 4 26 1 12 5 26 9 33 4 6 2 11 -4 11 -6 0 -8 5 -4 11 4 7 6 42
5 78 l-2 66 103 0 c57 -1 108 0 113 2 6 2 10 82 9 216 0 116 1 217 3 222 2 7
41 10 101 10 95 -2 138 7 127 25 -3 5 -5 254 -5 553 0 457 -2 546 -14 550 -7
3 -18 1 -24 -5 -6 -6 -12 -6 -16 1 -4 7 -15 7 -31 1 -15 -6 -27 -6 -30 0 -3 6
-15 6 -30 0 -15 -6 -27 -6 -30 0 -4 7 -13 7 -25 0 -24 -13 -26 0 -25 122 0 59
-3 99 -10 101 -5 2 -106 3 -222 2 -141 0 -213 3 -214 10 -1 5 -2 53 -3 105 -1
52 -5 100 -9 106 -4 7 -20 9 -46 4 -22 -4 -44 -3 -49 2 -6 6 -12 6 -16 -1 -5
-7 -15 -7 -31 -1 -14 5 -25 6 -25 1 0 -5 -15 -5 -34 -1 -19 4 -40 4 -47 -1 -7
-4 -19 -3 -26 3 -10 8 -13 7 -13 -3 0 -10 -3 -10 -12 -1 -7 7 -17 8 -30 1 -12
-7 -18 -6 -18 1 0 8 -6 8 -20 0 -14 -8 -20 -8 -20 0 0 7 -6 8 -19 1 -31 -17
-38 6 -35 114 1 55 2 103 3 106 1 3 49 5 109 5 l107 -1 2 148 c1 82 4 151 6
153 3 3 1 21 -3 40 -4 19 -4 36 1 39 4 3 5 16 0 28 -4 12 -6 27 -4 32 3 11
-202 15 -216 5z"/>
</g>
</svg>
